<?xml version="1.0" encoding="UTF-8"?><svg id="_레이어_1" xmlns="http://www.w3.org/2000/svg" viewBox="0 0 283.46 283.46"><defs><style>.cls-1{fill:#1e4fa1;}.cls-2{fill:#e61e62;}</style></defs><g><path class="cls-1" d="M51.81,89.33h0c-2.68-5.74-.19-12.56,5.55-15.24l30.68-14.31c19.28-8.99,42.29-7.28,60.03,4.48,11.13,7.38,25.56,8.45,37.66,2.81l30.68-14.31c5.74-2.68,12.56-.19,15.24,5.55h0c2.68,5.74,.19,12.56-5.55,15.24l-30.68,14.31c-19.29,8.99-42.29,7.28-60.03-4.48-11.13-7.38-25.56-8.45-37.66-2.81l-30.68,14.31c-5.74,2.68-12.56,.19-15.24-5.55Z"/><rect class="cls-1" x="39.15" y="26.31" width="58.72" height="22.94" rx="11.47" ry="11.47" transform="translate(-9.55 32.49) rotate(-25)"/><rect class="cls-1" x="165.76" y="20.14" width="58.71" height="22.94" rx="11.47" ry="11.47" transform="translate(4.92 85.42) rotate(-25)"/><rect class="cls-1" x="58.96" y="104.58" width="58.72" height="22.94" rx="11.47" ry="11.47" transform="translate(-40.77 48.19) rotate(-25)"/><rect class="cls-1" x="185.6" y="98.36" width="58.71" height="22.94" rx="11.47" ry="11.47" transform="translate(-26.27 101.13) rotate(-25)"/></g><g><path class="cls-2" d="M141.73,207.87c-8.88,0-17.75-1.93-26.02-5.78l-68.27-31.83c-5.74-2.68-8.22-9.5-5.55-15.24h0c2.68-5.74,9.5-8.22,15.24-5.55l68.27,31.83c10.37,4.84,22.27,4.84,32.65,0l68.27-31.83c5.74-2.68,12.56-.19,15.24,5.55h0c2.68,5.74,.19,12.56-5.55,15.24l-68.27,31.83c-8.27,3.85-17.14,5.78-26.02,5.78Z"/><path class="cls-2" d="M241.56,264.27c-2.68,5.74-9.5,8.22-15.24,5.55l-68.27-31.83c-10.37-4.84-22.27-4.84-32.65,0l-68.27,31.83c-5.74,2.68-12.56,.19-15.24-5.55h0c-2.68-5.74-.19-12.56,5.55-15.24l68.27-31.83c16.53-7.71,35.5-7.71,52.03,0l68.27,31.83c5.74,2.68,8.22,9.5,5.55,15.24h0Z"/><rect class="cls-2" x="41.9" y="198.17" width="58.72" height="22.94" rx="11.47" ry="11.47"/><rect class="cls-2" x="182.84" y="198.17" width="58.72" height="22.94" rx="11.47" ry="11.47"/></g></svg>